<svg id="Layer_1" data-name="Layer 1" xmlns="http://www.w3.org/2000/svg" viewBox="0 0 1400 1200"><defs><style>.cls-1{fill:#8bd2ce;}.cls-2{fill:#70952f;}.cls-3{fill:#39b54a;}.cls-4{fill:#98631f;}.cls-5{fill:#664005;}.cls-6{fill:#91bc3e;}.cls-7{fill:#80a736;}.cls-8{fill:#d4d6ad;}.cls-9{fill:#ffdf04;}.cls-10{fill:#b7c539;}.cls-11{fill:#fed9b7;}.cls-12{fill:#75c9b5;}.cls-13{fill:#fffac2;}.cls-14{fill:#844425;}.cls-15{fill:#826c54;}.cls-16{fill:#9e8267;}.cls-17{fill:#503939;}.cls-18{fill:#ffe495;}.cls-19{fill:#d1b49a;}.cls-20{fill:#e0c884;}.cls-21{fill:#d24859;}.cls-22{fill:#a73745;}.cls-23{fill:#7a5348;}.cls-24{fill:#926458;}.cls-25{fill:#66b09e;}.cls-26{fill:#f1e9b6;}.cls-27{fill:#9b461d;}.cls-28{fill:#86515a;}.cls-29{fill:#d6443d;}.cls-30{fill:#faa819;}.cls-31{fill:#a9d9c2;}.cls-32{fill:#7cccc1;}.cls-33{opacity:0.2;}.cls-34{fill:#62493b;}.cls-35{fill:#d46231;}.cls-36{fill:#b4514c;}.cls-37{fill:#c75c55;}.cls-38{fill:#f07067;}.cls-39{fill:#b7c18d;}.cls-40{fill:#2c1e16;}.cls-41{fill:#f26f67;}.cls-42{opacity:0.1;}.cls-43{fill:#694c4d;}.cls-44{fill:#db645e;}.cls-45{fill:#c85b55;}.cls-46{opacity:0.3;}.cls-47{fill:#8e3e17;}.cls-48{fill:#c89c80;}.cls-49{fill:#a8846c;}.cls-50{fill:#be957a;}.cls-51{fill:#d4a587;}.cls-52{fill:#f0ba97;}.cls-53{fill:#816451;}</style></defs><rect class="cls-1" width="1400" height="1200"/><path class="cls-2" d="M1254.37,693.09,723.87,387.58c-20.28-11.7-53.46-11.7-73.73,0L168.7,664.8s0,5.55,0,13.27,5.06,15.43,15.2,21.28c0,0,200.11,115.31,219.8,126.93S425.37,854.73,406,866c-43.23,25.11-109.82,63-109.82,63s0,3.92,0,13.12c0,7.16,4.44,14.78,16.09,21.42,26.61,15.19,222.07,128.29,222.07,128.29,20.27,11.7,53.45,11.7,73.72,0l631.16-364.1c10.23-5.9,15.3-13.71,15.2-21.49S1254.37,693.09,1254.37,693.09Z"/><path class="cls-3" d="M1239.17,671.9,723.87,374.32c-20.28-11.71-53.46-11.71-73.73,0L183.87,643.52c-20.27,11.7-20.27,30.86,0,42.56,0,0,200.11,115.32,219.8,126.93s21.7,28.45,2.29,39.73c-43.23,25.11-83,48-93.74,53.77-15.58,8.33-26.61,28.58,0,43.77s222.07,128.28,222.07,128.28c20.27,11.71,53.45,11.71,73.72,0l631.16-364.09C1259.44,702.76,1259.44,683.61,1239.17,671.9Z"/><path class="cls-2" d="M258,657.06c0,7.42-11.22,13.44-25.07,13.44s-25.07-6-25.07-13.44,11.23-13.45,25.07-13.45S258,649.63,258,657.06Z"/><ellipse class="cls-2" cx="319.43" cy="606.42" rx="25.07" ry="13.44"/><ellipse class="cls-2" cx="405.92" cy="555.79" rx="25.07" ry="13.44"/><ellipse class="cls-2" cx="492.4" cy="505.16" rx="25.07" ry="13.44"/><path class="cls-4" d="M589.14,448.24h0a67.92,67.92,0,0,1-5.69-27.32,3.76,3.76,0,0,0,0-.87V353H566.3v67.84a67.86,67.86,0,0,1-5.69,27.32h0c-1.75,3-.56,6.5,3.61,8.9,5.87,3.38,15.39,3.39,21.25,0C589.64,454.68,590.84,451.24,589.14,448.24Z"/><path class="cls-5" d="M589.14,448.23a67.92,67.92,0,0,1-5.69-27.32,3.76,3.76,0,0,0,0-.87V353h-5.93v79.92a41.84,41.84,0,0,0,7.8,24.23l.2-.09c4.15-2.39,5.35-5.83,3.65-8.83Z"/><path class="cls-6" d="M620.61,356.41a45.54,45.54,0,1,1-45.54-45.53A45.54,45.54,0,0,1,620.61,356.41Z"/><path class="cls-7" d="M579.82,311.12a45.53,45.53,0,0,1-28.44,81.09,46.42,46.42,0,0,1-4.74-.25,45.53,45.53,0,1,0,33.18-80.84Z"/><path class="cls-4" d="M502.57,498.08h0a67.94,67.94,0,0,1-5.69-27.33,6.32,6.32,0,0,0,0-.87v-67H479.74v67.83A67.94,67.94,0,0,1,474.05,498h0c-1.75,3-.56,6.49,3.61,8.89,5.88,3.39,15.39,3.4,21.26,0C503.07,504.52,504.28,501.08,502.57,498.08Z"/><path class="cls-5" d="M502.57,498.08a67.94,67.94,0,0,1-5.69-27.33,6.32,6.32,0,0,0,0-.87v-67h-5.94v79.92A41.84,41.84,0,0,0,498.73,507l.2-.09c4.18-2.33,5.35-5.83,3.64-8.83Z"/><path class="cls-6" d="M534,406.25a45.53,45.53,0,1,1-45.53-45.53A45.53,45.53,0,0,1,534,406.25Z"/><path class="cls-7" d="M493.25,361a45.52,45.52,0,0,1-28.43,81.08,46.63,46.63,0,0,1-4.75-.24A45.53,45.53,0,1,0,493.25,361Z"/><path class="cls-4" d="M416,547.92h0a67.92,67.92,0,0,1-5.69-27.32,3.67,3.67,0,0,0,0-.87v-67H393.17v67.84a67.92,67.92,0,0,1-5.69,27.32h0c-1.75,3-.56,6.49,3.61,8.9,5.87,3.38,15.39,3.39,21.25,0C416.51,554.36,417.71,550.93,416,547.92Z"/><path class="cls-5" d="M416,547.92a67.92,67.92,0,0,1-5.69-27.32,3.67,3.67,0,0,0,0-.87v-67h-5.93v79.92a41.84,41.84,0,0,0,7.8,24.23l.2-.09c4.18-2.33,5.35-5.83,3.65-8.84Z"/><path class="cls-6" d="M447.48,456.1a45.54,45.54,0,1,1-45.54-45.54A45.53,45.53,0,0,1,447.48,456.1Z"/><path class="cls-7" d="M406.69,410.81a45.53,45.53,0,0,1-28.44,81.09,46.42,46.42,0,0,1-4.74-.25,45.53,45.53,0,1,0,33.18-80.84Z"/><path class="cls-4" d="M329.44,597.77h0a67.86,67.86,0,0,1-5.69-27.32,6.32,6.32,0,0,0,0-.87v-67H306.61v67.84a67.86,67.86,0,0,1-5.69,27.32h0c-1.75,3-.56,6.5,3.61,8.9,5.87,3.38,15.39,3.39,21.26,0C329.94,604.21,331.15,600.77,329.44,597.77Z"/><path class="cls-5" d="M329.44,597.76a67.86,67.86,0,0,1-5.69-27.32,6.32,6.32,0,0,0,0-.87v-67h-5.94v79.92a41.86,41.86,0,0,0,7.81,24.23l.2-.09c4.18-2.33,5.35-5.83,3.64-8.83Z"/><path class="cls-6" d="M360.91,505.94a45.54,45.54,0,1,1-45.53-45.53A45.53,45.53,0,0,1,360.91,505.94Z"/><path class="cls-7" d="M320.12,460.65a45.53,45.53,0,0,1-28.43,81.09,43.91,43.91,0,0,1-4.75-.25,45.53,45.53,0,1,0,33.18-80.84Z"/><path class="cls-4" d="M242.88,647.61h0a67.92,67.92,0,0,1-5.69-27.32,3.91,3.91,0,0,0,0-.88v-67H220v67.84a67.92,67.92,0,0,1-5.69,27.32h0c-1.75,3-.56,6.49,3.61,8.89,5.87,3.39,15.39,3.4,21.25,0C243.38,654.05,244.58,650.62,242.88,647.61Z"/><path class="cls-5" d="M242.88,647.61a67.92,67.92,0,0,1-5.69-27.32,3.91,3.91,0,0,0,0-.88v-67h-5.93v79.92a41.86,41.86,0,0,0,7.8,24.23l.2-.1c4.15-2.39,5.35-5.82,3.65-8.83Z"/><path class="cls-6" d="M274.35,555.79a45.54,45.54,0,1,1-45.54-45.54A45.54,45.54,0,0,1,274.35,555.79Z"/><path class="cls-7" d="M233.56,510.5a45.52,45.52,0,0,1-28.44,81.08,46.43,46.43,0,0,1-4.74-.24,45.53,45.53,0,1,0,33.18-80.84Z"/><polygon class="cls-8" points="690.17 763.15 428.28 611.94 690.17 460.74 952.07 611.94 690.17 763.15"/><polygon class="cls-9" points="719.53 489.14 508.3 611.94 740.83 746.2 634.23 807.74 770.8 886.6 1088.64 702.25 719.53 489.14"/><polygon class="cls-10" points="719.51 489.13 508.3 611.94 508.3 321.93 719.51 199.12 719.51 489.13"/><polygon class="cls-11" points="508.3 611.94 740.83 746.2 740.83 456.19 508.3 321.93 508.3 611.94"/><polygon class="cls-12" points="622.58 655.75 622.39 575.16 697.08 618.27 697.26 698.85 622.58 655.75"/><path class="cls-13" d="M699.71,703.07l-79.57-45.92-.2-86.21,79.57,45.92ZM625,654.34l69.81,40.29-.17-75-69.82-40.29Z"/><rect class="cls-13" x="657.72" y="594.46" width="4.87" height="85.48" transform="translate(-221.7 890.48) rotate(-60.01)"/><polygon class="cls-13" points="655.24 593.37 655.24 673.74 660.11 676.55 660.11 596.17 655.24 593.37"/><polygon class="cls-14" points="543 631.98 599.03 664.31 599.03 558.83 543 526.5 543 631.98"/><polygon class="cls-12" points="558.76 610.69 591.39 629.52 591.39 568.08 558.76 549.25 558.76 610.69"/><polygon class="cls-14" points="555.12 583.29 595.03 606.33 595.03 597.66 555.12 574.63 555.12 583.29"/><polygon class="cls-15" points="549.47 530.23 543 526.5 543 631.98 549.47 635.71 549.47 530.23"/><polygon class="cls-16" points="599.03 656.85 549.47 628.25 543 631.98 599.03 664.31 599.03 656.85"/><polygon class="cls-8" points="769.38 935.28 553.79 810.81 959.52 575.99 1175.11 700.46 769.38 935.28"/><polygon class="cls-11" points="634.23 807.74 770.8 886.6 770.8 741.65 634.23 662.8 634.23 807.74"/><polygon class="cls-17" points="658.1 821.53 746.93 872.81 746.93 767.33 658.1 716.05 658.1 821.53"/><polygon class="cls-18" points="952.07 478.43 1088.64 557.29 1088.64 412.34 952.07 333.49 952.07 478.43"/><polygon class="cls-18" points="952.07 623.38 1088.64 702.23 1088.64 557.29 952.07 478.44 952.07 623.38"/><polygon class="cls-19" points="770.8 741.65 1088.64 557.29 1088.64 702.25 770.8 886.6 770.8 741.65"/><polygon class="cls-19" points="740.83 456.3 952.05 333.49 952.07 478.44 740.83 600.97 740.83 456.3"/><polygon class="cls-11" points="826.85 551.12 963.42 629.97 963.42 485.03 826.85 406.18 826.85 551.12"/><polygon class="cls-19" points="963.42 485.03 1088.64 412.34 1088.64 557.29 963.42 629.97 963.42 485.03"/><polygon class="cls-20" points="826.85 406.18 952.07 333.49 1088.64 412.34 963.42 485.03 826.85 406.18"/><polygon class="cls-21" points="952.07 333.49 952.07 217.29 1088.64 412.34 952.07 333.49"/><polygon class="cls-22" points="719.53 199.14 952.07 217.3 952.07 333.4 719.53 199.14"/><path class="cls-8" d="M746.93,872.83l-88.83-51.3L373.65,985.69c27.75,16,60.29,34.83,88.8,51.32Z"/><path class="cls-8" d="M599,664.31,543,632,316.48,762.48c16.79,9.7,38.73,22.39,56,32.38Z"/><polygon class="cls-23" points="664.56 719.78 658.1 716.05 658.1 821.53 664.56 825.26 664.56 719.78"/><polygon class="cls-24" points="746.93 865.35 664.56 817.79 658.1 821.53 746.93 872.81 746.93 865.35"/><polygon class="cls-25" points="991.18 533.01 1060.88 492.55 1060.88 667.64 991.18 708.1 991.18 533.01"/><path class="cls-26" d="M988.75,712.32V531.61l74.56-43.28V669Zm4.87-177.91V703.87l64.82-37.63V496.78Z"/><rect class="cls-26" x="1023.6" y="513.54" width="4.87" height="174.33"/><polygon class="cls-26" points="1061.53 537.67 991.92 577.86 991.92 583.47 1061.53 543.29 1061.53 537.67"/><polygon class="cls-26" points="1061.53 578.31 991.92 618.5 991.92 624.12 1061.53 583.93 1061.53 578.31"/><polygon class="cls-26" points="1061.53 618.96 991.92 659.15 991.92 664.77 1061.53 624.58 1061.53 618.96"/><polygon class="cls-12" points="545.63 476.29 545.45 395.7 697.08 483.25 697.26 563.83 545.63 476.29"/><path class="cls-13" d="M699.71,568.05,543.2,477.7l-.2-86.22,156.51,90.36ZM548.06,474.88l146.76,84.73-.17-75L547.89,399.92Z"/><rect class="cls-13" x="619.25" y="392.79" width="4.87" height="174.33" transform="translate(-104.76 778.51) rotate(-60.01)"/><polygon class="cls-13" points="584.84 417.7 584.84 498.07 589.71 500.88 589.71 420.51 584.84 417.7"/><polygon class="cls-13" points="620.04 438.02 620.04 518.4 624.91 521.21 624.91 440.83 620.04 438.02"/><polygon class="cls-13" points="655.24 458.35 655.24 538.72 660.11 541.53 660.11 461.15 655.24 458.35"/><polygon class="cls-27" points="927.99 224.39 966.1 202.27 1007.67 261.63 969.55 283.76 927.99 224.39"/><path class="cls-28" d="M326.51,746.16c-5.13,3-9.29,10.17-9.29,16.1l18.59-10.73C335.81,745.6,331.65,743.2,326.51,746.16Z"/><path class="cls-28" d="M345.1,735.43c-5.13,3-9.29,10.17-9.29,16.1L354.4,740.8C354.4,734.87,350.24,732.46,345.1,735.43Z"/><path class="cls-28" d="M363.69,724.7c-5.13,3-9.29,10.17-9.29,16.1L373,730.06C373,724.13,368.83,721.73,363.69,724.7Z"/><path class="cls-28" d="M382.28,714c-5.13,3-9.29,10.17-9.29,16.1l18.59-10.73C391.58,713.4,387.42,711,382.28,714Z"/><path class="cls-28" d="M400.87,703.23c-5.13,3-9.29,10.17-9.29,16.1l18.59-10.73C410.17,702.67,406,700.27,400.87,703.23Z"/><path class="cls-28" d="M419.46,692.5c-5.13,3-9.29,10.17-9.29,16.1l18.59-10.74C428.76,691.94,424.6,689.53,419.46,692.5Z"/><path class="cls-28" d="M438.05,681.76c-5.13,3-9.29,10.18-9.29,16.1l18.59-10.73C447.35,681.2,443.19,678.8,438.05,681.76Z"/><path class="cls-28" d="M456.64,671c-5.13,3-9.29,10.17-9.29,16.1l18.59-10.73C465.94,670.47,461.78,668.07,456.64,671Z"/><path class="cls-28" d="M475.23,660.3c-5.13,3-9.29,10.17-9.29,16.1l18.59-10.74C484.53,659.74,480.37,657.33,475.23,660.3Z"/><path class="cls-28" d="M493.82,649.56c-5.13,3-9.29,10.18-9.29,16.1l18.59-10.73C503.12,649,499,646.6,493.82,649.56Z"/><path class="cls-28" d="M382.28,778.76c-5.13,3-9.29,10.17-9.29,16.1l18.59-10.74C391.58,778.19,387.42,775.79,382.28,778.76Z"/><path class="cls-28" d="M400.87,768c-5.13,3-9.29,10.17-9.29,16.1l18.59-10.73C410.17,767.46,406,765.06,400.87,768Z"/><path class="cls-28" d="M419.46,757.29c-5.13,3-9.29,10.17-9.29,16.1l18.59-10.73C428.76,756.73,424.6,754.33,419.46,757.29Z"/><path class="cls-28" d="M438.05,746.56c-5.13,3-9.29,10.17-9.29,16.1l18.59-10.74C447.35,746,443.19,743.59,438.05,746.56Z"/><path class="cls-28" d="M456.64,735.82c-5.13,3-9.29,10.18-9.29,16.1l18.59-10.73C465.94,735.26,461.78,732.86,456.64,735.82Z"/><path class="cls-28" d="M475.23,725.09c-5.13,3-9.29,10.17-9.29,16.1l18.59-10.73C484.53,724.53,480.37,722.13,475.23,725.09Z"/><path class="cls-28" d="M493.82,714.36c-5.13,3-9.29,10.17-9.29,16.1l18.59-10.73C503.12,713.8,499,711.39,493.82,714.36Z"/><path class="cls-28" d="M512.41,703.63c-5.13,3-9.29,10.17-9.29,16.1L521.71,709C521.71,703.06,517.55,700.66,512.41,703.63Z"/><path class="cls-28" d="M531,692.89c-5.13,3-9.29,10.17-9.29,16.1l18.59-10.73C540.3,692.33,536.14,689.93,531,692.89Z"/><path class="cls-28" d="M549.59,682.16c-5.13,3-9.29,10.17-9.29,16.1l18.59-10.73C558.89,681.6,554.73,679.19,549.59,682.16Z"/><polygon class="cls-25" points="857.88 544.39 857.69 463.8 932.38 506.91 932.57 587.49 857.88 544.39"/><path class="cls-26" d="M935,591.71l-79.56-45.92-.2-86.21,79.56,45.92ZM860.31,543l69.82,40.29L930,508.32,860.14,468Z"/><rect class="cls-26" x="893.03" y="483.1" width="4.87" height="85.48" transform="translate(-7.6 1038.52) rotate(-60.01)"/><polygon class="cls-26" points="890.55 482.01 890.55 562.38 895.41 565.19 895.41 484.81 890.55 482.01"/><path class="cls-29" d="M473.88,651.69c1.8-1,1.8-2.73,0-3.77a7.31,7.31,0,0,0-5.42-.46,2.44,2.44,0,0,0-1.3-1.6,7.22,7.22,0,0,0-6.53,0c-1.81,1-1.81,2.73,0,3.78a5.1,5.1,0,0,0,1,.42l-.15.07c-1.81,1-1.81,2.73,0,3.78a7.22,7.22,0,0,0,6.53,0,2.54,2.54,0,0,0,1.3-1.55A7.14,7.14,0,0,0,473.88,651.69Z"/><path class="cls-30" d="M468.76,651.34a5,5,0,0,1-4.5,0c-1.25-.72-1.25-1.88,0-2.6a5,5,0,0,1,4.5,0C470,649.46,470,650.62,468.76,651.34Z"/><path class="cls-29" d="M436.49,673.33c1.8-1,1.8-2.73,0-3.77a7.31,7.31,0,0,0-5.42-.46,2.41,2.41,0,0,0-1.3-1.6,7.22,7.22,0,0,0-6.53,0c-1.81,1-1.81,2.73,0,3.77a4.58,4.58,0,0,0,1,.43l-.15.07c-1.8,1.05-1.81,2.73,0,3.78a7.22,7.22,0,0,0,6.53,0,2.54,2.54,0,0,0,1.3-1.55A7.14,7.14,0,0,0,436.49,673.33Z"/><path class="cls-30" d="M431.37,673a5,5,0,0,1-4.5,0c-1.25-.72-1.25-1.88,0-2.6a5,5,0,0,1,4.5,0C432.62,671.1,432.62,672.26,431.37,673Z"/><path class="cls-29" d="M399.1,695c1.8-1,1.8-2.73,0-3.77a7.29,7.29,0,0,0-5.41-.46,2.46,2.46,0,0,0-1.31-1.6,7.22,7.22,0,0,0-6.53,0c-1.81,1-1.81,2.73,0,3.78a5.1,5.1,0,0,0,1,.42l-.15.07c-1.8,1.05-1.81,2.73,0,3.78a7.22,7.22,0,0,0,6.53,0,2.48,2.48,0,0,0,1.3-1.55A7.14,7.14,0,0,0,399.1,695Z"/><path class="cls-30" d="M394,694.62a5,5,0,0,1-4.51,0,1.37,1.37,0,0,1,0-2.6,5,5,0,0,1,4.51,0A1.37,1.37,0,0,1,394,694.62Z"/><path class="cls-29" d="M361.71,716.61c1.8-1,1.8-2.73,0-3.77a7.29,7.29,0,0,0-5.41-.46,2.46,2.46,0,0,0-1.31-1.6,7.22,7.22,0,0,0-6.53,0c-1.81,1-1.81,2.73,0,3.78a5.1,5.1,0,0,0,1,.42l-.15.07c-1.8,1.05-1.8,2.73,0,3.77a7.16,7.16,0,0,0,6.53,0,2.44,2.44,0,0,0,1.3-1.54A7.13,7.13,0,0,0,361.71,716.61Z"/><path class="cls-30" d="M356.6,716.26a5,5,0,0,1-4.51,0,1.37,1.37,0,0,1,0-2.6,5,5,0,0,1,4.51,0A1.37,1.37,0,0,1,356.6,716.26Z"/><path class="cls-29" d="M324.32,738.25c1.81-1,1.81-2.73,0-3.77a7.29,7.29,0,0,0-5.41-.46,2.46,2.46,0,0,0-1.31-1.6,7.22,7.22,0,0,0-6.53,0c-1.81,1-1.81,2.73,0,3.78a5.1,5.1,0,0,0,1,.42l-.15.07c-1.8,1-1.8,2.73,0,3.77a7.16,7.16,0,0,0,6.53,0,2.44,2.44,0,0,0,1.3-1.54A7.13,7.13,0,0,0,324.32,738.25Z"/><path class="cls-30" d="M319.21,737.9a5,5,0,0,1-4.51,0,1.37,1.37,0,0,1,0-2.6,5,5,0,0,1,4.51,0A1.37,1.37,0,0,1,319.21,737.9Z"/><path class="cls-29" d="M568,708.09c1.81-1.05,1.81-2.73,0-3.78a7.33,7.33,0,0,0-5.41-.46,2.47,2.47,0,0,0-1.3-1.6,7.21,7.21,0,0,0-6.54,0c-1.8,1-1.8,2.73,0,3.77a6.13,6.13,0,0,0,1,.43l-.15.06c-1.8,1.05-1.8,2.74,0,3.78a7.24,7.24,0,0,0,6.54,0,2.49,2.49,0,0,0,1.29-1.55A7.2,7.2,0,0,0,568,708.09Z"/><path class="cls-30" d="M562.89,707.73a5,5,0,0,1-4.51,0,1.37,1.37,0,0,1,0-2.6,5,5,0,0,1,4.51,0A1.37,1.37,0,0,1,562.89,707.73Z"/><path class="cls-29" d="M530.61,729.73c1.81-1.05,1.81-2.74,0-3.78a7.28,7.28,0,0,0-5.41-.46,2.47,2.47,0,0,0-1.3-1.6,7.24,7.24,0,0,0-6.54,0c-1.8,1.05-1.8,2.74,0,3.78a6.13,6.13,0,0,0,1,.43l-.15.06c-1.8,1.05-1.8,2.73,0,3.78a7.24,7.24,0,0,0,6.54,0,2.49,2.49,0,0,0,1.29-1.55A7.2,7.2,0,0,0,530.61,729.73Z"/><path class="cls-30" d="M525.5,729.37a5,5,0,0,1-4.51,0,1.37,1.37,0,0,1,0-2.6,5,5,0,0,1,4.51,0A1.37,1.37,0,0,1,525.5,729.37Z"/><path class="cls-29" d="M493.23,751.37c1.8-1,1.8-2.73,0-3.78a7.28,7.28,0,0,0-5.41-.46,2.47,2.47,0,0,0-1.3-1.6,7.24,7.24,0,0,0-6.54,0c-1.8,1.05-1.8,2.74,0,3.78a5.36,5.36,0,0,0,1,.42l-.15.07c-1.8,1.05-1.8,2.73,0,3.78a7.24,7.24,0,0,0,6.54,0,2.49,2.49,0,0,0,1.29-1.55A7.24,7.24,0,0,0,493.23,751.37Z"/><path class="cls-30" d="M488.11,751a5,5,0,0,1-4.51,0,1.37,1.37,0,0,1,0-2.6,5,5,0,0,1,4.51,0A1.37,1.37,0,0,1,488.11,751Z"/><path class="cls-29" d="M455.84,773c1.8-1,1.8-2.74,0-3.78a7.33,7.33,0,0,0-5.41-.46,2.47,2.47,0,0,0-1.3-1.6,7.24,7.24,0,0,0-6.54,0c-1.8,1.05-1.8,2.74,0,3.78a5.36,5.36,0,0,0,1,.42l-.15.07c-1.8,1-1.8,2.74,0,3.78a7.24,7.24,0,0,0,6.54,0,2.49,2.49,0,0,0,1.29-1.55A7.24,7.24,0,0,0,455.84,773Z"/><path class="cls-30" d="M450.72,772.65a5,5,0,0,1-4.51,0,1.37,1.37,0,0,1,0-2.6,5,5,0,0,1,4.51,0A1.37,1.37,0,0,1,450.72,772.65Z"/><path class="cls-29" d="M418.45,794.65c1.8-1,1.8-2.74,0-3.78a7.31,7.31,0,0,0-5.42-.46,2.47,2.47,0,0,0-1.3-1.6,7.24,7.24,0,0,0-6.54,0c-1.8,1-1.8,2.74,0,3.78a5.36,5.36,0,0,0,1,.42l-.15.07c-1.8,1-1.8,2.73,0,3.78a7.24,7.24,0,0,0,6.54,0,2.54,2.54,0,0,0,1.3-1.55A7.22,7.22,0,0,0,418.45,794.65Z"/><path class="cls-30" d="M413.33,794.29a5,5,0,0,1-4.5,0c-1.25-.72-1.25-1.88,0-2.6a5,5,0,0,1,4.51,0A1.37,1.37,0,0,1,413.33,794.29Z"/><path class="cls-29" d="M1236.49,697.84c1.81-1,1.81-2.73,0-3.77a7.29,7.29,0,0,0-5.41-.47,2.42,2.42,0,0,0-1.31-1.59,7.22,7.22,0,0,0-6.53,0c-1.81,1-1.81,2.73,0,3.77a5.12,5.12,0,0,0,1,.43l-.15.07c-1.8,1-1.8,2.73,0,3.77a7.22,7.22,0,0,0,6.53,0,2.43,2.43,0,0,0,1.3-1.55A7.13,7.13,0,0,0,1236.49,697.84Z"/><path class="cls-30" d="M1231.38,697.49a5,5,0,0,1-4.51,0,1.37,1.37,0,0,1,0-2.6,5,5,0,0,1,4.51,0A1.37,1.37,0,0,1,1231.38,697.49Z"/><path class="cls-29" d="M1197.29,720.56c1.8-1,1.8-2.74,0-3.78a7.36,7.36,0,0,0-5.42-.46,2.47,2.47,0,0,0-1.3-1.6,7.21,7.21,0,0,0-6.54,0c-1.8,1-1.8,2.73,0,3.77a6.13,6.13,0,0,0,1,.43l-.15.06c-1.8,1-1.8,2.74,0,3.78a7.24,7.24,0,0,0,6.54,0,2.49,2.49,0,0,0,1.29-1.55A7.24,7.24,0,0,0,1197.29,720.56Z"/><path class="cls-30" d="M1192.17,720.2a5,5,0,0,1-4.51,0,1.37,1.37,0,0,1,0-2.6,5,5,0,0,1,4.51,0A1.37,1.37,0,0,1,1192.17,720.2Z"/><path class="cls-29" d="M1158.08,743.27c1.8-1,1.8-2.73,0-3.77a7.31,7.31,0,0,0-5.42-.46,2.47,2.47,0,0,0-1.3-1.6,7.24,7.24,0,0,0-6.54,0c-1.8,1-1.8,2.73,0,3.78a6.11,6.11,0,0,0,1,.42.69.69,0,0,1-.15.07c-1.79,1.06-1.8,2.73,0,3.77a7.16,7.16,0,0,0,6.53,0,2.5,2.5,0,0,0,1.3-1.54A7.15,7.15,0,0,0,1158.08,743.27Z"/><path class="cls-30" d="M1153,742.92a5,5,0,0,1-4.5,0c-1.25-.72-1.25-1.88,0-2.6a5,5,0,0,1,4.5,0C1154.21,741,1154.21,742.2,1153,742.92Z"/><path class="cls-29" d="M1118.87,766c1.8-1,1.8-2.73,0-3.77a7.24,7.24,0,0,0-5.41-.46,2.46,2.46,0,0,0-1.31-1.6,7.22,7.22,0,0,0-6.53,0c-1.81,1-1.81,2.73,0,3.77a5.12,5.12,0,0,0,1,.43c-.05,0-.11,0-.15.07-1.8,1-1.81,2.73,0,3.77a7.22,7.22,0,0,0,6.53,0,2.49,2.49,0,0,0,1.3-1.55A7.14,7.14,0,0,0,1118.87,766Z"/><path class="cls-30" d="M1113.75,765.64a5,5,0,0,1-4.5,0c-1.25-.72-1.25-1.88,0-2.6a5,5,0,0,1,4.5,0C1115,763.76,1115,764.92,1113.75,765.64Z"/><path class="cls-29" d="M1079.66,788.71c1.81-1,1.81-2.73,0-3.77a7.29,7.29,0,0,0-5.41-.47,2.42,2.42,0,0,0-1.31-1.59,7.16,7.16,0,0,0-6.53,0c-1.81,1-1.81,2.73,0,3.77a5.79,5.79,0,0,0,1,.43l-.15.07c-1.8,1-1.8,2.73,0,3.77a7.22,7.22,0,0,0,6.53,0,2.46,2.46,0,0,0,1.3-1.55A7.2,7.2,0,0,0,1079.66,788.71Z"/><path class="cls-30" d="M1074.55,788.36a5,5,0,0,1-4.51,0,1.38,1.38,0,0,1,0-2.61,5,5,0,0,1,4.51,0A1.38,1.38,0,0,1,1074.55,788.36Z"/><path class="cls-29" d="M1040.45,811.43c1.81-1,1.81-2.74,0-3.78a7.28,7.28,0,0,0-5.41-.46,2.47,2.47,0,0,0-1.3-1.6,7.24,7.24,0,0,0-6.54,0c-1.8,1-1.8,2.73,0,3.78a5.36,5.36,0,0,0,1,.42l-.15.07c-1.8,1-1.8,2.73,0,3.78a7.24,7.24,0,0,0,6.54,0,2.49,2.49,0,0,0,1.29-1.55A7.2,7.2,0,0,0,1040.45,811.43Z"/><path class="cls-30" d="M1035.34,811.07a5,5,0,0,1-4.51,0,1.37,1.37,0,0,1,0-2.6,5,5,0,0,1,4.51,0A1.37,1.37,0,0,1,1035.34,811.07Z"/><path class="cls-29" d="M1001.25,834.14c1.8-1,1.8-2.73,0-3.77a7.31,7.31,0,0,0-5.42-.46,2.44,2.44,0,0,0-1.3-1.6,7.24,7.24,0,0,0-6.54,0c-1.8,1-1.8,2.73,0,3.77a5.38,5.38,0,0,0,1,.43s-.1,0-.14.07c-1.81,1-1.81,2.73,0,3.77a7.22,7.22,0,0,0,6.53,0,2.49,2.49,0,0,0,1.3-1.55A7.15,7.15,0,0,0,1001.25,834.14Z"/><path class="cls-30" d="M996.13,833.79a5,5,0,0,1-4.5,0c-1.25-.72-1.25-1.88,0-2.6a5,5,0,0,1,4.5,0C997.38,831.91,997.38,833.07,996.13,833.79Z"/><path class="cls-29" d="M962,856.86c1.8-1,1.8-2.73,0-3.77a7.26,7.26,0,0,0-5.42-.46,2.39,2.39,0,0,0-1.3-1.6,7.22,7.22,0,0,0-6.53,0c-1.81,1-1.81,2.73,0,3.77a5.12,5.12,0,0,0,1,.43.69.69,0,0,0-.15.07c-1.8,1-1.81,2.73,0,3.77a7.22,7.22,0,0,0,6.53,0,2.49,2.49,0,0,0,1.3-1.55A7.21,7.21,0,0,0,962,856.86Z"/><path class="cls-30" d="M956.92,856.51a5,5,0,0,1-4.5,0c-1.25-.72-1.25-1.89,0-2.6a5,5,0,0,1,4.5,0C958.17,854.62,958.17,855.79,956.92,856.51Z"/><path class="cls-29" d="M922.83,879.58c1.81-1.05,1.81-2.73,0-3.78a7.34,7.34,0,0,0-5.41-.46,2.46,2.46,0,0,0-1.31-1.6,7.22,7.22,0,0,0-6.53,0c-1.81,1-1.81,2.74,0,3.78a5.79,5.79,0,0,0,1,.43l-.15.06c-1.8,1-1.8,2.73,0,3.78a7.22,7.22,0,0,0,6.53,0,2.48,2.48,0,0,0,1.3-1.55A7.2,7.2,0,0,0,922.83,879.58Z"/><path class="cls-30" d="M917.72,879.22a5,5,0,0,1-4.51,0,1.37,1.37,0,0,1,0-2.6,5,5,0,0,1,4.51,0A1.37,1.37,0,0,1,917.72,879.22Z"/><path class="cls-29" d="M883.62,902.29c1.81-1,1.81-2.73,0-3.77a7.28,7.28,0,0,0-5.41-.46,2.47,2.47,0,0,0-1.3-1.6,7.24,7.24,0,0,0-6.54,0c-1.8,1-1.8,2.73,0,3.77a4.8,4.8,0,0,0,1,.43l-.15.07c-1.79,1.06-1.8,2.73,0,3.77a7.18,7.18,0,0,0,6.54,0,2.45,2.45,0,0,0,1.29-1.54A7.13,7.13,0,0,0,883.62,902.29Z"/><path class="cls-30" d="M878.51,901.94a5,5,0,0,1-4.51,0,1.37,1.37,0,0,1,0-2.6,5,5,0,0,1,4.51,0A1.37,1.37,0,0,1,878.51,901.94Z"/><path class="cls-29" d="M844.42,925c1.8-1,1.8-2.73,0-3.77a7.26,7.26,0,0,0-5.42-.46,2.44,2.44,0,0,0-1.3-1.6,7.24,7.24,0,0,0-6.54,0c-1.8,1-1.8,2.73,0,3.77a5.38,5.38,0,0,0,1,.43l-.15.07c-1.8,1-1.8,2.73,0,3.77a7.24,7.24,0,0,0,6.54,0,2.49,2.49,0,0,0,1.3-1.55A7.15,7.15,0,0,0,844.42,925Z"/><path class="cls-30" d="M839.3,924.66a5,5,0,0,1-4.5,0c-1.25-.72-1.25-1.89,0-2.6a5,5,0,0,1,4.5,0C840.55,922.77,840.55,923.94,839.3,924.66Z"/><path class="cls-29" d="M805.21,947.73c1.8-1,1.8-2.73,0-3.78a7.36,7.36,0,0,0-5.42-.46,2.47,2.47,0,0,0-1.3-1.6,7.19,7.19,0,0,0-6.53,0c-1.81,1-1.81,2.73,0,3.77a5.29,5.29,0,0,0,1,.43l-.14.07c-1.8,1-1.81,2.73,0,3.77a7.22,7.22,0,0,0,6.53,0,2.52,2.52,0,0,0,1.3-1.55A7.22,7.22,0,0,0,805.21,947.73Z"/><path class="cls-30" d="M800.09,947.37a5,5,0,0,1-4.5,0c-1.25-.71-1.25-1.88,0-2.6a5,5,0,0,1,4.5,0C801.34,945.49,801.34,946.66,800.09,947.37Z"/><path class="cls-29" d="M766,970.44c1.8-1,1.8-2.73,0-3.77a7.29,7.29,0,0,0-5.41-.46,2.46,2.46,0,0,0-1.31-1.6,7.22,7.22,0,0,0-6.53,0c-1.81,1-1.81,2.74,0,3.78a5.1,5.1,0,0,0,1,.42l-.15.07c-1.8,1-1.8,2.73,0,3.78a7.22,7.22,0,0,0,6.53,0,2.48,2.48,0,0,0,1.3-1.55A7.14,7.14,0,0,0,766,970.44Z"/><path class="cls-30" d="M760.89,970.09a5,5,0,0,1-4.51,0,1.37,1.37,0,0,1,0-2.6,5,5,0,0,1,4.51,0A1.37,1.37,0,0,1,760.89,970.09Z"/><path class="cls-29" d="M726.79,993.16c1.81-1,1.81-2.73,0-3.77a7.28,7.28,0,0,0-5.41-.46,2.43,2.43,0,0,0-1.31-1.6,7.22,7.22,0,0,0-6.53,0c-1.8,1-1.81,2.73,0,3.77a5.12,5.12,0,0,0,1,.43l-.15.07c-1.8,1-1.8,2.73,0,3.77a7.22,7.22,0,0,0,6.53,0,2.43,2.43,0,0,0,1.3-1.55A7.07,7.07,0,0,0,726.79,993.16Z"/><path class="cls-30" d="M721.68,992.81a5,5,0,0,1-4.51,0,1.37,1.37,0,0,1,0-2.6,5,5,0,0,1,4.51,0A1.37,1.37,0,0,1,721.68,992.81Z"/><path class="cls-29" d="M687.59,1015.88c1.8-1,1.8-2.73,0-3.77a7.31,7.31,0,0,0-5.42-.47,2.43,2.43,0,0,0-1.3-1.59,7.24,7.24,0,0,0-6.54,0c-1.8,1-1.8,2.73,0,3.77a5.38,5.38,0,0,0,1,.43l-.15.07c-1.8,1-1.8,2.73,0,3.77a7.24,7.24,0,0,0,6.54,0,2.49,2.49,0,0,0,1.3-1.55A7.15,7.15,0,0,0,687.59,1015.88Z"/><path class="cls-30" d="M682.47,1015.53a5,5,0,0,1-4.51,0,1.37,1.37,0,0,1,0-2.6,5,5,0,0,1,4.51,0A1.37,1.37,0,0,1,682.47,1015.53Z"/><path class="cls-29" d="M648.38,1038.6c1.8-1,1.8-2.73,0-3.78a7.36,7.36,0,0,0-5.42-.46,2.47,2.47,0,0,0-1.3-1.6,7.21,7.21,0,0,0-6.54,0c-1.8,1-1.8,2.73,0,3.77a6.52,6.52,0,0,0,1,.43l-.14.07c-1.81,1-1.81,2.73,0,3.77a7.22,7.22,0,0,0,6.53,0,2.54,2.54,0,0,0,1.3-1.55A7.22,7.22,0,0,0,648.38,1038.6Z"/><path class="cls-30" d="M643.26,1038.24a5,5,0,0,1-4.5,0c-1.25-.71-1.25-1.88,0-2.6a5,5,0,0,1,4.5,0C644.51,1036.36,644.51,1037.53,643.26,1038.24Z"/><path class="cls-29" d="M609.17,1061.31c1.8-1,1.8-2.73,0-3.77a7.29,7.29,0,0,0-5.41-.46,2.46,2.46,0,0,0-1.31-1.6,7.22,7.22,0,0,0-6.53,0c-1.81,1-1.81,2.73,0,3.78a5.1,5.1,0,0,0,1,.42l-.15.07c-1.81,1-1.81,2.73,0,3.77a7.16,7.16,0,0,0,6.53,0,2.44,2.44,0,0,0,1.3-1.54A7.14,7.14,0,0,0,609.17,1061.31Z"/><path class="cls-30" d="M604.06,1061a5,5,0,0,1-4.51,0,1.37,1.37,0,0,1,0-2.6,5,5,0,0,1,4.51,0A1.37,1.37,0,0,1,604.06,1061Z"/><polygon class="cls-31" points="567.82 466.7 567.82 469.81 575.73 464.53 575.73 461.42 567.82 466.7"/><polygon class="cls-31" points="633.38 473.52 633.38 476.62 641.28 471.34 641.28 468.24 633.38 473.52"/><polygon class="cls-31" points="664.58 524.54 664.58 527.64 672.48 522.37 672.48 519.26 664.58 524.54"/><polygon class="cls-31" points="615.64 449.61 598 461.39 598 458.29 615.64 446.51 615.64 449.61"/><polygon class="cls-31" points="616.67 486.12 599.03 497.9 599.03 494.8 616.67 483.02 616.67 486.12"/><polygon class="cls-25" points="945.34 700.54 945.52 664.8 793.89 752.34 793.71 788.08 945.34 700.54"/><path class="cls-26" d="M791.46,750.94,948,660.58l-.2,41.37L791.26,792.31ZM943.08,669,796.33,753.75l-.18,30.11,146.76-84.73Z"/><polygon class="cls-26" points="906.13 686.79 906.13 722.33 901.27 725.13 901.26 689.6 906.13 686.79"/><polygon class="cls-26" points="870.93 707.12 870.93 742.65 866.07 745.46 866.06 709.92 870.93 707.12"/><polygon class="cls-26" points="835.73 727.44 835.73 762.97 830.86 765.78 830.86 730.25 835.73 727.44"/><polygon class="cls-32" points="935.44 695.88 935.44 698.99 927.53 693.71 927.53 690.6 935.44 695.88"/><polygon class="cls-32" points="857.6 742.61 857.6 745.72 849.69 740.44 849.69 737.33 857.6 742.61"/><polygon class="cls-32" points="893.81 719.91 879.34 710.25 879.34 713.35 893.81 723.01 893.81 719.91"/><polygon class="cls-32" points="1007.76 551.34 1008.52 554.34 1014.88 547.28 1014.12 544.27 1007.76 551.34"/><polygon class="cls-32" points="1007.76 637.04 1008.52 640.05 1014.88 632.99 1014.12 629.97 1007.76 637.04"/><polygon class="cls-32" points="1044.52 648.92 1045.28 651.93 1051.64 644.87 1050.88 641.86 1044.52 648.92"/><polygon class="cls-32" points="1018.8 665.81 1004.6 681.57 1003.84 678.56 1018.04 662.8 1018.8 665.81"/><polygon class="cls-32" points="1048.08 568.2 1033.88 583.96 1033.11 580.95 1047.31 565.19 1048.08 568.2"/><polygon class="cls-32" points="869.62 531.78 869.62 534.89 877.52 529.61 877.52 526.5 869.62 531.78"/><polygon class="cls-32" points="916.2 509.2 898.56 520.98 898.56 517.88 916.2 506.09 916.2 509.2"/><polygon class="cls-32" points="924.42 552.96 906.77 564.74 906.77 561.63 924.42 549.85 924.42 552.96"/><polygon class="cls-31" points="632.43 640.99 632.43 644.1 640.33 638.82 640.33 635.71 632.43 640.99"/><polygon class="cls-31" points="682.22 622.07 664.58 633.85 664.58 630.74 682.22 618.96 682.22 622.07"/><polygon class="cls-31" points="579.76 584.7 579.76 587.8 587.67 582.52 587.67 579.42 579.76 584.7"/><polygon class="cls-31" points="567.26 608.95 567.26 612.05 579.76 603.7 579.76 600.6 567.26 608.95"/><g class="cls-33"><polygon class="cls-34" points="963.42 485.03 1088.64 412.34 1088.64 702.25 963.42 485.03"/></g><polygon class="cls-35" points="576.31 571.96 520.29 539.62 543 526.5 599.03 558.85 576.31 571.96"/><polygon class="cls-35" points="576.31 568.8 520.29 536.45 543 523.34 599.03 555.69 576.31 568.8"/><polygon class="cls-36" points="627.14 666.84 627.14 662.53 826.85 551.12 963.42 625.66 963.42 629.97 763.71 745.69 627.14 666.84"/><polygon class="cls-37" points="627.14 666.84 627.14 662.53 763.71 741.38 763.71 745.69 627.14 666.84"/><polygon class="cls-38" points="627.14 662.53 826.85 546.81 963.42 625.66 763.71 741.38 627.14 662.53"/><polygon class="cls-37" points="740.83 596.65 826.85 546.81 963.42 625.66 740.83 596.65"/><path class="cls-39" d="M552.32,588.3a3.26,3.26,0,0,0,1.48,2.56h0c.81.47,1.47.09,1.47-.85v-9.08a3.26,3.26,0,0,0-1.47-2.55h0c-.82-.47-1.48-.09-1.48.85Z"/><g class="cls-33"><polygon class="cls-40" points="543 526.5 599.03 664.31 599.03 664.31 599.03 558.83 543 526.5"/></g><polygon class="cls-41" points="576.31 568.8 520.29 536.45 543 509.47 599.03 541.82 576.31 568.8"/><polygon class="cls-36" points="576.31 568.8 599.03 555.69 599.03 558.83 576.31 571.96 576.31 568.8"/><polygon class="cls-37" points="576.31 568.8 520.29 536.45 520.29 539.62 576.31 571.96 576.31 568.8"/><polygon class="cls-37" points="599.03 541.82 599.03 555.69 576.31 568.8 599.03 541.82"/><g class="cls-42"><polygon class="cls-40" points="856.67 936.12 1174.51 751.86 1088.64 702.25 770.8 886.51 856.67 936.12"/></g><polygon class="cls-43" points="746.92 780.3 668.55 735.05 668.55 733.24 746.92 778.49 746.92 780.3"/><polygon class="cls-43" points="746.92 792.82 668.55 747.57 668.55 745.76 746.92 791 746.92 792.82"/><polygon class="cls-43" points="746.92 805.33 668.55 760.08 668.55 758.27 746.92 803.52 746.92 805.33"/><polygon class="cls-43" points="746.92 817.85 668.55 772.6 668.55 770.79 746.92 816.04 746.92 817.85"/><polygon class="cls-43" points="746.92 830.37 668.55 785.12 668.55 783.3 746.92 828.55 746.92 830.37"/><polygon class="cls-43" points="746.92 842.88 668.55 797.63 668.55 795.82 746.92 841.07 746.92 842.88"/><polygon class="cls-43" points="746.92 855.4 668.55 810.15 668.55 808.34 746.92 853.59 746.92 855.4"/><g class="cls-42"><polygon class="cls-40" points="508.3 611.94 634.23 684.65 634.23 749.55 508.3 611.94"/></g><polygon class="cls-44" points="463.27 318.05 726.79 341.44 726.79 470.2 463.27 318.05"/><polygon class="cls-45" points="726.79 341.44 966.16 202.27 966.18 332.67 726.79 470.31 726.79 341.44"/><polygon class="cls-38" points="463.27 318.05 702.63 178.87 966.18 202.27 726.79 341.44 463.27 318.05"/><path class="cls-45" d="M931.52,211.21h-.09L704.2,191a1,1,0,0,1-.88-1.05,1,1,0,0,1,1.06-.89L931.6,209.27a1,1,0,0,1-.08,1.94Z"/><path class="cls-45" d="M910.87,223.21h-.09L683.55,203a1,1,0,0,1-.88-1.05,1,1,0,0,1,1.06-.89L911,221.27a1,1,0,0,1-.08,1.94Z"/><path class="cls-45" d="M890.22,235.21h-.09L662.91,215A1,1,0,0,1,662,214a1,1,0,0,1,1.06-.89L890.3,233.27a1,1,0,0,1-.08,1.94Z"/><path class="cls-45" d="M869.57,247.21h-.09L642.26,227a1,1,0,1,1,.17-1.94l227.22,20.18a1,1,0,0,1-.08,1.94Z"/><path class="cls-45" d="M848.92,259.21h-.09L621.61,239a1,1,0,1,1,.17-1.94L849,257.27a1,1,0,0,1-.09,1.94Z"/><path class="cls-45" d="M828.27,271.21h-.09L601,251a1,1,0,0,1,.17-1.94l227.23,20.18a1,1,0,0,1-.09,1.94Z"/><path class="cls-45" d="M807.62,283.21h-.08L580.31,263a1,1,0,0,1,.17-1.94l227.23,20.18a1,1,0,0,1-.09,1.94Z"/><path class="cls-45" d="M787,295.21h-.08L559.66,275a1,1,0,0,1,.17-1.94l227.23,20.18a1,1,0,0,1-.09,1.94Z"/><path class="cls-45" d="M766.33,307.21h-.09L539,287a1,1,0,0,1,.17-1.94l227.23,20.18a1,1,0,0,1-.08,1.94Z"/><path class="cls-45" d="M745.68,319.21h-.09L518.36,299a1,1,0,0,1,.17-1.94l227.23,20.18a1,1,0,0,1-.08,1.94Z"/><path class="cls-45" d="M725,331.21h-.09L497.71,311a1,1,0,1,1,.18-1.94l227.22,20.18a1,1,0,0,1-.08,1.94Z"/><polygon class="cls-37" points="463.27 328.43 726.8 480.59 726.8 470.21 463.27 318.05 463.27 328.43"/><polygon class="cls-36" points="826.85 412.41 726.79 470.22 726.79 480.61 826.85 422.79 826.85 412.41"/><polygon class="cls-37" points="826.86 422.79 978.74 510.44 978.74 500.06 826.86 412.41 826.86 422.79"/><polygon class="cls-36" points="1118.02 419.21 978.73 500.06 978.73 510.44 1118.02 429.6 1118.02 419.21"/><polygon class="cls-44" points="826.85 412.36 826.85 283.11 978.74 500.06 826.85 412.36"/><polygon class="cls-41" points="826.85 283.11 966.13 202.27 1118.02 419.21 978.74 500.06 826.85 283.11"/><path class="cls-37" d="M977.6,474.15a1,1,0,0,1-.79-.42L852.34,296a1,1,0,1,1,1.59-1.12L978.4,472.61a1,1,0,0,1-.24,1.36A1,1,0,0,1,977.6,474.15Z"/><path class="cls-37" d="M993.91,464.68a1,1,0,0,1-.8-.41L868.64,286.49a1,1,0,0,1,1.6-1.11L994.71,463.15a1,1,0,0,1-.24,1.36A1,1,0,0,1,993.91,464.68Z"/><path class="cls-37" d="M1010.21,455.22a1,1,0,0,1-.79-.42L885,277a1,1,0,1,1,1.6-1.12L1011,453.69a1,1,0,0,1-.8,1.53Z"/><path class="cls-37" d="M1026.52,445.76a1,1,0,0,1-.8-.42L901.26,267.57a1,1,0,0,1,1.6-1.12l124.46,177.77a1,1,0,0,1-.8,1.54Z"/><path class="cls-37" d="M1042.82,436.29a1,1,0,0,1-.8-.41L917.57,258.1a1,1,0,0,1,1.59-1.12l124.46,177.78a1,1,0,0,1-.24,1.36A1,1,0,0,1,1042.82,436.29Z"/><path class="cls-37" d="M1059.13,426.83a1,1,0,0,1-.8-.42L933.88,248.64a1,1,0,1,1,1.59-1.12l124.45,177.77a1,1,0,0,1-.24,1.36A.93.93,0,0,1,1059.13,426.83Z"/><path class="cls-37" d="M1075.43,417.36a1,1,0,0,1-.8-.41L950.18,239.17a1,1,0,0,1,1.6-1.11l124.45,177.77a1,1,0,0,1-.24,1.36A1,1,0,0,1,1075.43,417.36Z"/><path class="cls-37" d="M1091.74,407.9a1,1,0,0,1-.8-.42L966.49,229.71a1,1,0,0,1,1.6-1.12l124.44,177.78a1,1,0,0,1-.24,1.35A.93.93,0,0,1,1091.74,407.9Z"/><g class="cls-46"><polygon class="cls-47" points="969.55 283.76 1007.67 261.83 1042.94 311.98 969.55 283.76"/></g><polygon class="cls-48" points="969.55 283.76 927.99 224.52 927.99 169.23 969.55 151.58 969.55 283.76"/><polygon class="cls-49" points="969.55 283.76 1007.67 261.83 1007.67 171.27 969.55 151.58 969.55 283.76"/><polygon class="cls-50" points="969.83 202.27 922.59 174.99 922.59 169.09 965.82 150.03 1013.06 171.41 1013.06 177.31 969.83 202.27"/><polygon class="cls-51" points="969.83 202.27 922.59 174.99 922.59 169.09 965.82 150.03 969.83 196.37 969.83 202.27"/><polygon class="cls-52" points="969.83 196.37 922.59 169.09 965.82 144.13 1013.06 171.41 969.83 196.37"/><path class="cls-53" d="M977.88,184.08c-4.74,2.74-12.49,2.74-17.23,0l-16.78-9.69c-4.74-2.74-4.74-7.22,0-9.95l13.9-8c4.74-2.74,12.49-2.74,17.23,0l16.78,9.69c4.74,2.73,4.74,7.21,0,9.95Z"/></svg>